<svg width="64" height="64" viewBox="0 0 64 64" fill="none" xmlns="http://www.w3.org/2000/svg">
  <rect width="64" height="64" rx="16" fill="#3B82F6"/>
  <path d="M16 24C16 20.8954 18.8954 18 22 18H42C45.1046 18 48 20.8954 48 24V40C48 43.1046 45.1046 46 42 46H22C18.8954 46 16 43.1046 16 40V24Z" fill="white"/>
  <path d="M24 28C24 26.8954 24.8954 26 26 26H38C39.1046 26 40 26.8954 40 28V36C40 37.1046 39.1046 38 38 38H26C24.8954 38 24 37.1046 24 36V28Z" fill="#3B82F6"/>
  <circle cx="32" cy="32" r="4" fill="white"/>
  <path d="M28 32L30 34L36 28" stroke="#3B82F6" stroke-width="2" stroke-linecap="round" stroke-linejoin="round"/>
</svg>
